mtllib arrow.mtl
v -2.00000048321543 -0.050003784840502 -0.0866025403784435
v -14.4001550953824 -0.050003784840502 -0.0866025403784407
v -2.00000048321543 -3.78484050198979E-06 -0.0999999999999998
v -14.4001550953824 -0.0866063252189459 -0.0499999999999968
v -2.00000048321543 -0.100003784840502 3.80739265267523E-16
v -14.4001550953824 -0.100003784840502 3.12719280016378E-15
v -2.00000048321543 -0.0866063252189459 -0.0499999999999996
v -14.4001550953824 -0.0866063252189458 0.0500000000000032
v -2.00000048321543 -0.050003784840502 0.0866025403784442
v -14.4001550953824 -0.050003784840502 0.086602540378447
v -2.00000048321543 -0.0866063252189459 0.0500000000000004
v -14.4001550953824 -3.78484050197754E-06 0.100000000000003
v -2.00000048321543 0.049996215159498 0.0866025403784443
v -14.4001550953824 0.0499962151594981 0.086602540378447
v -2.00000048321543 -3.78484050200203E-06 0.1
v -14.4001550953824 0.0865987555379419 0.0500000000000031
v -2.00000048321543 0.099996215159498 4.0523220125047E-16
v -14.4001550953824 0.099996215159498 3.10269986418083E-15
v -2.00000048321543 0.0865987555379418 0.0500000000000004
v -14.4001550953824 0.0865987555379419 -0.0499999999999969
v -2.00000048321543 0.0499962151594981 -0.0866025403784434
v -14.4001550953824 0.049996215159498 -0.0866025403784408
v -2.00000048321543 0.0865987555379419 -0.0499999999999995
v -14.4001550953824 -3.78484050198979E-06 -0.0999999999999965
v -14.4001550953824 -0.050003784840502 -0.0866025403784407
v -14.4001550953824 -0.050003784840502 0.086602540378447
v -14.4001550953824 -3.78484050198979E-06 -0.0999999999999965
v -14.4001550953824 -0.0866063252189458 0.0500000000000032
v -14.4001550953824 -0.100003784840502 3.12719280016378E-15
v -14.4001550953824 -0.0866063252189459 -0.0499999999999968
v -14.4001550953824 -3.78484050197754E-06 0.100000000000003
v -14.4001550953824 0.049996215159498 -0.0866025403784408
v -14.4001550953824 0.0865987555379419 0.0500000000000031
v -14.4001550953824 0.0865987555379419 -0.0499999999999969
v -14.4001550953824 0.0499962151594981 0.086602540378447
v -14.4001550953824 0.099996215159498 3.10269986418083E-15
v -2.00000048321543 0.0499962151594981 -0.0866025403784434
v -2.00000048321543 0.049996215159498 0.0866025403784443
v -2.00000048321543 -3.78484050198979E-06 -0.0999999999999998
v -2.00000048321543 0.0865987555379418 0.0500000000000004
v -2.00000048321543 0.099996215159498 4.0523220125047E-16
v -2.00000048321543 0.0865987555379419 -0.0499999999999995
v -2.00000048321543 -3.78484050200203E-06 0.1
v -2.00000048321543 -0.050003784840502 -0.0866025403784435
v -2.00000048321543 -0.0866063252189459 0.0500000000000004
v -2.00000048321543 -0.0866063252189459 -0.0499999999999996
v -2.00000048321543 -0.050003784840502 0.0866025403784442
v -2.00000048321543 -0.100003784840502 3.80739265267523E-16
vn -1.59086285808736E-16 -0.499999999999998 -0.86602540378444
vn -1.59086285808736E-16 -0.5 -0.866025403784438
vn -1.83697019872103E-16 0 -1
vn -9.18485099360513E-17 -0.866025403784439 -0.499999999999999
vn -8.27026842438098E-31 -1 -4.50212443845799E-15
vn 2.95407338334428E-32 -1 1.60812264967664E-16
vn -9.18485099360521E-17 -0.866025403784437 -0.500000000000003
vn 9.18485099360516E-17 -0.866025403784438 0.500000000000001
vn 1.59086285808736E-16 -0.500000000000002 0.866025403784437
vn 1.59086285808736E-16 -0.5 0.866025403784439
vn 9.18485099360508E-17 -0.866025403784441 0.499999999999996
vn 1.83697019872103E-16 -1.22464679914735E-16 1
vn 1.59086285808736E-16 0.500000000000001 0.866025403784438
vn 1.59086285808736E-16 0.5 0.866025403784438
vn 1.83697019872103E-16 1.22464679914735E-16 1
vn 9.18485099360515E-17 0.866025403784439 0.5
vn -7.86237910234692E-31 1 -4.28007983353296E-15
vn -1.12481983699639E-32 1 -6.12323399573677E-17
vn 9.18485099360509E-17 0.86602540378444 0.499999999999997
vn -9.18485099360515E-17 0.866025403784439 -0.5
vn -1.59086285808736E-16 0.499999999999999 -0.866025403784439
vn -1.59086285808736E-16 0.5 -0.866025403784439
vn -9.1848509936052E-17 0.866025403784437 -0.500000000000003
vn -1.83697019872103E-16 0 -1
vn -1 0 1.83697019872103E-16
vn -1 0 1.83697019872103E-16
vn -1 0 1.83697019872103E-16
vn -1 0 1.83697019872103E-16
vn -1 0 1.83697019872103E-16
vn -1 0 1.83697019872103E-16
vn -1 0 1.83697019872103E-16
vn -1 0 1.83697019872103E-16
vn -1 0 1.83697019872103E-16
vn -1 0 1.83697019872103E-16
vn -1 0 1.83697019872103E-16
vn -1 0 1.83697019872103E-16
vn 1 0 -1.83697019872103E-16
vn 1 0 -1.83697019872103E-16
vn 1 0 -1.83697019872103E-16
vn 1 0 -1.83697019872103E-16
vn 1 0 -1.83697019872103E-16
vn 1 0 -1.83697019872103E-16
vn 1 0 -1.83697019872103E-16
vn 1 0 -1.83697019872103E-16
vn 1 0 -1.83697019872103E-16
vn 1 0 -1.83697019872103E-16
vn 1 0 -1.83697019872103E-16
vn 1 0 -1.83697019872103E-16
usemtl 1_Definition1
f 1//1 2//2 3//3
f 2//2 1//1 4//4
f 5//5 6//6 7//7
f 6//6 5//5 8//8
f 9//9 10//10 11//11
f 10//10 9//9 12//12
f 13//13 14//14 15//15
f 14//14 13//13 16//16
f 17//17 18//18 19//19
f 18//18 17//17 20//20
f 21//21 22//22 23//23
f 22//22 21//21 24//24
f 22//22 20//20 23//23
f 23//23 20//20 17//17
f 18//18 16//16 19//19
f 19//19 16//16 13//13
f 14//14 12//12 15//15
f 15//15 12//12 9//9
f 10//10 8//8 11//11
f 11//11 8//8 5//5
f 6//6 4//4 7//7
f 7//7 4//4 1//1
f 2//2 24//24 3//3
f 3//3 24//24 21//21
f 25//25 26//26 27//27
f 26//26 25//25 28//28
f 29//29 28//28 30//30
f 30//30 28//28 25//25
f 26//26 31//31 27//27
f 27//27 31//31 32//32
f 33//33 34//34 35//35
f 33//33 36//36 34//34
f 34//34 32//32 35//35
f 35//35 32//32 31//31
f 37//37 38//38 39//39
f 38//38 37//37 40//40
f 41//41 40//40 42//42
f 42//42 40//40 37//37
f 38//38 43//43 39//39
f 39//39 43//43 44//44
f 45//45 46//46 47//47
f 45//45 48//48 46//46
f 46//46 44//44 47//47
f 47//47 44//44 43//43
v -2.00000048321543 0.499996215159498 8.30951709113322E-16
v -2.00000048321543 -3.78484050198979E-06 -0.5
v -2.00000048321543 -3.78484050215632E-06 0.5
v -2.00000048321543 -0.500003784840502 8.30951709113322E-16
v -2.00000048321543 0.499996215159498 8.30951709113322E-16
v -2.00000048321543 -3.78484050215632E-06 0.5
v -4.83215433444428E-07 -3.78484050198979E-06 0
v -2.00000048321543 -3.78484050198979E-06 -0.5
v -2.00000048321543 0.499996215159498 8.30951709113322E-16
v -4.83215433444428E-07 -3.78484050198979E-06 0
v -2.00000048321543 -0.500003784840502 8.30951709113322E-16
v -2.00000048321543 -3.78484050198979E-06 -0.5
v -4.83215433444428E-07 -3.78484050198979E-06 0
v -2.00000048321543 -3.78484050215632E-06 0.5
v -2.00000048321543 -0.500003784840502 8.30951709113322E-16
v -4.83215433444428E-07 -3.78484050198979E-06 0
vn -1 0 1.83697019872103E-16
vn -1 0 1.83697019872103E-16
vn -1 0 1.83697019872103E-16
vn -1 0 1.83697019872103E-16
vn 0.174077655955698 0.696310623822791 0.696310623822792
vn 0.174077655955698 0.696310623822791 0.696310623822792
vn 0.174077655955698 0.696310623822791 0.696310623822792
vn 0.174077655955698 0.696310623822792 -0.696310623822791
vn 0.174077655955698 0.696310623822792 -0.696310623822791
vn 0.174077655955698 0.696310623822792 -0.696310623822791
vn 0.174077655955698 -0.696310623822792 -0.696310623822791
vn 0.174077655955698 -0.696310623822792 -0.696310623822791
vn 0.174077655955698 -0.696310623822792 -0.696310623822791
vn 0.174077655955698 -0.696310623822791 0.696310623822792
vn 0.174077655955698 -0.696310623822791 0.696310623822792
vn 0.174077655955698 -0.696310623822791 0.696310623822792
usemtl 2_Definition1
f 49//49 50//50 51//51
f 50//50 52//52 51//51
f 53//53 54//54 55//55
f 56//56 57//57 58//58
f 59//59 60//60 61//61
f 62//62 63//63 64//64
v -13.4001550953824 -0.400003784840502 -0.0499999999999969
v -13.4001550953824 -0.400003784840502 0.0500000000000028
v -13.1001550953824 -0.100003784840502 -0.049999999999997
v -13.1001550953824 -0.100003784840502 0.0500000000000027
v -11.4001550953824 -0.100003784840502 -0.0499999999999982
v -11.4001550953824 -0.100003784840502 0.0500000000000024
v -11.7001550953824 -0.400003784840502 -0.0499999999999981
v -11.7001550953824 -0.400003784840502 0.0500000000000016
v -13.4001550953824 -0.400003784840502 -0.0499999999999969
v -13.1001550953824 -0.100003784840502 -0.049999999999997
v -11.7001550953824 -0.400003784840502 -0.0499999999999981
v -11.4001550953824 -0.100003784840502 -0.0499999999999982
v -13.4001550953824 -0.400003784840502 0.0500000000000028
v -11.7001550953824 -0.400003784840502 0.0500000000000016
v -13.1001550953824 -0.100003784840502 0.0500000000000027
v -11.4001550953824 -0.100003784840502 0.0500000000000024
v -13.1001550953824 -0.100003784840502 -0.049999999999997
v -13.1001550953824 -0.100003784840502 0.0500000000000027
v -11.4001550953824 -0.100003784840502 -0.0499999999999982
v -11.4001550953824 -0.100003784840502 0.0500000000000024
v -11.7001550953824 -0.400003784840502 -0.0499999999999981
v -11.7001550953824 -0.400003784840502 0.0500000000000016
v -13.4001550953824 -0.400003784840502 -0.0499999999999969
v -13.4001550953824 -0.400003784840502 0.0500000000000028
vn -0.707106781186548 0.707106781186548 1.85404559666582E-16
vn -0.707106781186548 0.707106781186548 1.85404559666582E-16
vn -0.707106781186548 0.707106781186548 1.85404559666582E-16
vn -0.707106781186548 0.707106781186548 1.85404559666582E-16
vn 0.707106781186548 -0.707106781186547 -1.85404559666582E-16
vn 0.707106781186548 -0.707106781186547 -1.85404559666582E-16
vn 0.707106781186548 -0.707106781186547 -1.85404559666582E-16
vn 0.707106781186548 -0.707106781186547 -1.85404559666582E-16
vn -1.83697019872103E-16 0 -1
vn -1.83697019872103E-16 0 -1
vn -1.83697019872103E-16 0 -1
vn -1.83697019872103E-16 0 -1
vn 1.83697019872103E-16 0 1
vn 1.83697019872103E-16 0 1
vn 1.83697019872103E-16 0 1
vn 1.83697019872103E-16 0 1
vn 0 1 0
vn 0 1 0
vn 0 1 0
vn 0 1 0
vn 0 -1 0
vn 0 -1 0
vn 0 -1 0
vn 0 -1 0
usemtl 3_Definition1
f 65//65 66//66 67//67
f 66//66 68//68 67//67
f 69//69 70//70 71//71
f 70//70 72//72 71//71
f 73//73 74//74 75//75
f 74//74 76//76 75//75
f 77//77 78//78 79//79
f 78//78 80//80 79//79
f 81//81 82//82 83//83
f 82//82 84//84 83//83
f 85//85 86//86 87//87
f 86//86 88//88 87//87
v -13.1001550953824 0.100836055032634 -0.049999999999997
v -13.1001550953824 0.100836055032634 0.0500000000000027
v -13.4001550953824 0.400836055032633 -0.0499999999999969
v -13.4001550953824 0.400836055032633 0.0500000000000028
v -11.7001550953824 0.400836055032633 -0.0499999999999981
v -11.7001550953824 0.400836055032633 0.0500000000000016
v -11.4001550953824 0.100836055032634 -0.0499999999999982
v -11.4001550953824 0.100836055032634 0.0500000000000024
v -13.4001550953824 0.400836055032633 -0.0499999999999969
v -11.7001550953824 0.400836055032633 -0.0499999999999981
v -13.1001550953824 0.100836055032634 -0.049999999999997
v -11.4001550953824 0.100836055032634 -0.0499999999999982
v -13.4001550953824 0.400836055032633 0.0500000000000028
v -13.1001550953824 0.100836055032634 0.0500000000000027
v -11.7001550953824 0.400836055032633 0.0500000000000016
v -11.4001550953824 0.100836055032634 0.0500000000000024
v -13.1001550953824 0.100836055032634 0.0500000000000027
v -13.1001550953824 0.100836055032634 -0.049999999999997
v -11.4001550953824 0.100836055032634 0.0500000000000024
v -11.4001550953824 0.100836055032634 -0.0499999999999982
v -11.7001550953824 0.400836055032633 0.0500000000000016
v -11.7001550953824 0.400836055032633 -0.0499999999999981
v -13.4001550953824 0.400836055032633 0.0500000000000028
v -13.4001550953824 0.400836055032633 -0.0499999999999969
vn -0.707106781186548 -0.707106781186548 -9.21511964897073E-17
vn -0.707106781186548 -0.707106781186548 -9.21511964897073E-17
vn -0.707106781186548 -0.707106781186548 -9.21511964897073E-17
vn -0.707106781186548 -0.707106781186548 -9.21511964897073E-17
vn 0.707106781186548 0.707106781186547 9.21511964897072E-17
vn 0.707106781186548 0.707106781186547 9.21511964897072E-17
vn 0.707106781186548 0.707106781186547 9.21511964897072E-17
vn 0.707106781186548 0.707106781186547 9.21511964897072E-17
vn -1.83697019872103E-16 4.44089209850063E-16 -1
vn -1.83697019872103E-16 4.44089209850063E-16 -1
vn -1.83697019872103E-16 4.44089209850063E-16 -1
vn -1.83697019872103E-16 4.44089209850063E-16 -1
vn 1.83697019872103E-16 -4.44089209850063E-16 1
vn 1.83697019872103E-16 -4.44089209850063E-16 1
vn 1.83697019872103E-16 -4.44089209850063E-16 1
vn 1.83697019872103E-16 -4.44089209850063E-16 1
vn -8.15778644068135E-32 -1 -4.44089209850063E-16
vn -8.15778644068135E-32 -1 -4.44089209850063E-16
vn -8.15778644068135E-32 -1 -4.44089209850063E-16
vn -8.15778644068135E-32 -1 -4.44089209850063E-16
vn 8.15778644068135E-32 1 4.44089209850063E-16
vn 8.15778644068135E-32 1 4.44089209850063E-16
vn 8.15778644068135E-32 1 4.44089209850063E-16
vn 8.15778644068135E-32 1 4.44089209850063E-16
usemtl 4_Definition1
f 89//89 90//90 91//91
f 90//90 92//92 91//91
f 93//93 94//94 95//95
f 94//94 96//96 95//95
f 97//97 98//98 99//99
f 98//98 100//100 99//99
f 101//101 102//102 103//103
f 102//102 104//104 103//103
f 105//105 106//106 107//107
f 106//106 108//108 107//107
f 109//109 110//110 111//111
f 110//110 112//112 111//111
